This film contains the following spoken languages: Hindi, English, Urdu, Kashmiri.
----------------------------------------------------------------------------------

::Release Info::
================
Release Title: Inshallah, Kashmir (2012) Ashvin Kumar
Encode date: UTC 2012-01-25 15:35:14

::IMDB Info::
=============
IMDB Link: www.imdb.com/title/tt2255851/
Storyline: Testimonies of ordinary Kashmiris recount a brutal militancy and its terrible response. Dodging agents of Indian armed-forces, the filmmakers were able to obtain rare testimonials in the highest militarized zone in the world. The film tells how freedom is conceded and replaced by fear, governance by institutionalized oppression and a paradise made desolate on the watch of India : a secular, democratic republic.
Genre: Documentary
Release date: 26/01/2012

Interviews
==========

Sajad Malik
Cartoonist

Bashir Baba
Ex-militant
Abdul Qadeer Dar
Ex-militant
Manzoor
Ex-militant
Ghulam Mansoor
Ex-militant

Wajahat Habibullah
Former Div. Comsr., Kashmir
Omar Abdullah
Chief Minister, Jammu & Kashmir

Dr. Amit Wanchoo
Kashmiri Pandit

Parveena Ahangar
Founder, APDP
Parvez Ahmed
Brother missing since 1996
Vrinda Grover
Lawyer & Activist
Parvez Imroz
Human Rights Lawyer and Activist
Parvez Khurram
J&K Coalition of Civil Society

Zahoor Ahmed Hajam
Ex-militant

Abdul Hamid
Ex-militant
Khemlata Wakhloo
Prominent Kashmiri Pandit
O.N. Wakhloo
Prominent Kashmiri Pandit

Haseena
Husband forced into militancy
Sameera Begum
Victim, mass-rape by Indian Army
Zoona Begum

Bashir AhmedΓÇÖs family

Javed Pathan
Aspiring Sportsman
Ghulam Mohd Pathan

Shameena Bano Baba


General
=======
Complete name : Inshallah, Kashmir (2012) Ashvin Kumar.mp4
Format : MPEG-4
Format profile : Base Media / Version 2
Codec ID : mp42
File size : 328 MiB
Duration : 1h 22mn
Overall bit rate mode : Variable
Overall bit rate : 555 Kbps
Encoded date : UTC 2012-01-25 15:35:14
Tagged date : UTC 2012-01-25 15:35:14
gsst : 0
gstd : 4957970
gssd : B52946905HH1366580254217043
gshh :

Video
=====
ID : 1
Format : AVC
Format/Info : Advanced Video Codec
Format profile : Baseline@L3.0
Format settings, CABAC : No
Format settings, ReFrames : 1 frame
Format settings, GOP : M=1, N=30
Codec ID : avc1
Codec ID/Info : Advanced Video Coding
Duration : 1h 22mn
Bit rate : 457 Kbps
Maximum bit rate : 1 738 Kbps
Width : 640 pixels
Height : 360 pixels
Display aspect ratio : 16:9
Frame rate mode : Variable
Frame rate : 29.970 fps
Minimum frame rate : 28.736 fps
Maximum frame rate : 30.832 fps
Color space : YUV
Chroma subsampling : 4:2:0
Bit depth : 8 bits
Scan type : Progressive
Bits/(Pixel*Frame) : 0.066
Stream size : 270 MiB (82%)
Tagged date : UTC 2012-01-25 15:35:19

Audio
=====
ID : 2
Format : AAC
Format/Info : Advanced Audio Codec
Format profile : LC
Codec ID : 40
Duration : 1h 22mn
Bit rate mode : Variable
Bit rate : 96.0 Kbps
Maximum bit rate : 159 Kbps
Channel(s) : 2 channels
Channel positions : Front: L R
Sampling rate : 44.1 KHz
Compression mode : Lossy
Stream size : 56.6 MiB (17%)
Title : IsoMedia File Produced by Google, 5-11-2011
Encoded date : UTC 2012-01-25 15:35:15
Tagged date : UTC 2012-01-25 15:35:19